<?xml version="1.0" encoding="utf-8"?>
<!-- Svg Vector Icons : http://www.onlinewebfonts.com/icon -->
<!DOCTYPE svg PUBLIC "-//W3C//DTD SVG 1.1//EN" "http://www.w3.org/Graphics/SVG/1.1/DTD/svg11.dtd">
<svg version="1.1" xmlns="http://www.w3.org/2000/svg" xmlns:xlink="http://www.w3.org/1999/xlink" x="0px" y="0px" viewBox="0 0 256 256" enable-background="new 0 0 256 256" xml:space="preserve">
<metadata> Svg Vector Icons : http://www.onlinewebfonts.com/icon </metadata>
<g><g><g><g><path fill="#000000" d="M137.4,133c-5.3,0-9.6,1.8-12.9,5.4c-4,4.2-6,10.3-6.1,18.2c8.7-1.4,15.1-4,19.1-7.9c1.6-1.6,3.1-3.9,4.4-7.2c0.8-2.1,1.3-3.8,1.3-5.2c0-1.2-0.3-2.1-0.9-2.8C140.6,133.1,139,133,137.4,133z"/><path fill="#000000" d="M60.8,134.2c-2.5,2.7-5,6.4-7.5,11c-2.3,4.3-3.6,7.5-3.9,9.7c3.4-1,7.1-4.2,10.9-9.8c3.7-5.4,5.6-10,5.8-14c-0.2-0.1-0.4-0.2-0.7-0.2C64.3,131,62.7,132.1,60.8,134.2z"/><path fill="#000000" d="M214.7,10H41.3C24,10,10,24,10,41.3v173.4C10,232,24,246,41.3,246h173.4c17.3,0,31.3-14,31.3-31.3V41.3C246,24,232,10,214.7,10z M91.7,167.9c-1.8,1.3-3.6,1.9-5.5,1.9c-1.6,0-2.9-0.5-4-1.5c-2.2-2-4.2-5.9-6.1-11.8c-1.4-4.6-2.8-7.7-4.1-9.4c-0.3,0.5-0.7,1.2-1.4,2.1c-3.6,5.8-6.6,9.9-8.9,12.4c-4,4.4-8.2,7-12.5,7.9c-1.3,0.3-2.5,0.4-3.7,0.4c-3.4,0-6.2-1.1-8.3-3.3c-2.2-2.2-3.3-5.2-3.5-8.9c0-7.6,4.8-16.9,14.4-27.9c12.3-10,21.7-15,28-15h0.5c2.6,0,4.5,2.4,5.9,7.2c0.9,2.7,1.6,7,2.4,12.9c0.2,2,0.4,3.3,0.5,3.8c0.1,0.4,0.3,1.2,0.6,2.6c0.9,4.6,1.8,7.9,2.7,9.9c0.5,0.9,1.3,2.2,2.5,3.9c2.4,3.4,3.6,6.1,3.6,8.3C94.5,165.1,93.5,166.6,91.7,167.9z M156.9,132.5c-0.6,6.3-2.2,11.7-4.9,16.1c-3.3,5.5-7.6,10.2-12.8,14c-5.5,4-11.4,6.4-17.5,7.2c-1.2,0.2-2.4,0.3-3.5,0.3c-4,0-7.4-1-10.1-3c-3.5-2.6-5.2-6.4-5.2-11.4c0-0.4,0-0.8,0-1.3v-1.1c0-2.7-0.2-8.5-0.5-17.4c-0.2-6.7-0.3-12.6-0.3-17.6c0-3.3,0-6.2,0.1-8.8c0.8-21.8,5.1-32.8,12.7-32.8h0.6c2.6,0,3.8,1.8,3.8,5.3c0,1.4-0.2,3-0.6,4.9c-0.5,1.9-1.1,4.5-2.1,7.8c-0.9,2.9-1.3,4.6-1.4,5.1c-0.5,4.6-0.7,8.9-0.7,12.9c0,6.1,0.6,11.3,1.7,15.8c4.1-5,9.4-8.1,15.9-9.3c2-0.4,4.2-0.6,6.6-0.6c3.6,0,7.7,0.4,12.2,1.2c4.2,0.7,6.2,3.9,6.2,9.8C157.1,130.5,157.1,131.4,156.9,132.5z M196.9,167c-5.3,2-10,3-14.1,3c-6.4,0-11.4-2.5-14.9-7.3c-2.5-3.5-3.9-7.9-4-13.2v-1.2c0-4.6,0.9-9.2,2.6-13.7c2-5.1,4.6-9.1,8-12.1c3.5-3.2,7.4-4.8,11.5-4.8h0.4c3.8,0,6.3,1.6,7.5,4.8c0.3,0.8,0.4,1.6,0.4,2.4c0,2.2-1.3,4.1-4,5.7c-5.4,3.3-8.8,5.6-10,6.8c-2.1,2.2-3.2,4.7-3.2,7.5c0,1.4,0.2,2.8,0.8,4.4c1.2,3.5,3.7,5.2,7.5,5.2c0.6,0,1.2,0,1.9-0.2c3.2-0.4,8.1-2.1,14.7-5.2c7-3.2,11.6-4.9,13.8-5.3c0.7-0.1,1.3-0.2,1.9-0.2c2.9,0,4.4,1.6,4.6,4.7C221.3,154.7,212.8,160.9,196.9,167z"/></g></g><g></g><g></g><g></g><g></g><g></g><g></g><g></g><g></g><g></g><g></g><g></g><g></g><g></g><g></g><g></g></g></g>
</svg>